<?xml version="1.0" encoding="UTF-8" standalone="no"?>
<svg
   xmlns:dc="http://purl.org/dc/elements/1.1/"
   xmlns:cc="http://creativecommons.org/ns#"
   xmlns:rdf="http://www.w3.org/1999/02/22-rdf-syntax-ns#"
   xmlns:svg="http://www.w3.org/2000/svg"
   xmlns="http://www.w3.org/2000/svg"
   xmlns:sodipodi="http://sodipodi.sourceforge.net/DTD/sodipodi-0.dtd"
   xmlns:inkscape="http://www.inkscape.org/namespaces/inkscape"
   width="1452.7559"
   height="1052.3622"
   viewBox="-401 -161 808.93649 576.18002"
   id="svg2"
   version="1.1"
   inkscape:version="0.48.4 r9939"
   sodipodi:docname="components.svg"
   inkscape:export-filename="/home/torunar/edu/Диплом/tex/drafts/components.png"
   inkscape:export-xdpi="90"
   inkscape:export-ydpi="90">
  <metadata
     id="metadata304">
    <rdf:RDF>
      <cc:Work
         rdf:about="">
        <dc:format>image/svg+xml</dc:format>
        <dc:type
           rdf:resource="http://purl.org/dc/dcmitype/StillImage" />
        <dc:title />
      </cc:Work>
    </rdf:RDF>
  </metadata>
  <defs
     id="defs302" />
  <sodipodi:namedview
     pagecolor="#ffffff"
     bordercolor="#666666"
     borderopacity="1"
     objecttolerance="10"
     gridtolerance="10"
     guidetolerance="10"
     inkscape:pageopacity="0"
     inkscape:pageshadow="2"
     inkscape:window-width="1342"
     inkscape:window-height="719"
     id="namedview300"
     showgrid="false"
     units="mm"
     inkscape:zoom="1.4142136"
     inkscape:cx="327.7241"
     inkscape:cy="568.9023"
     inkscape:window-x="0"
     inkscape:window-y="0"
     inkscape:window-maximized="1"
     inkscape:current-layer="svg2" />
  <rect
     id="rect6"
     height="49.10281"
     width="736.54211"
     y="-74.984306"
     x="-381.56567"
     style="fill:#ffffff;stroke-width:0.49325397" />
  <rect
     id="rect8"
     height="49.10281"
     width="736.54211"
     y="-74.984306"
     x="-381.56567"
     style="fill:none;stroke:#000000;stroke-width:0.49325397" />
  <text
     id="text10"
     y="-49.542919"
     x="-13.29462"
     style="font-size:11.78467464000000042px;font-style:italic;font-weight:normal;text-anchor:middle;fill:#000000;font-family:GOST type A;stroke-width:0.49325397"
     font-size="19.2">
    <tspan
       id="tspan12"
       y="-49.542919"
       x="-13.29462"
       style="stroke-width:0.49325397">Главное окно</tspan>
  </text>
  <rect
     id="rect16"
     height="36.827106"
     width="147.30843"
     y="-1.330096"
     x="207.66801"
     style="fill:#ffffff;stroke-width:0.49325397" />
  <rect
     id="rect18"
     height="36.827106"
     width="147.30843"
     y="-1.330096"
     x="207.66801"
     style="fill:none;stroke:#000000;stroke-width:0.49325397" />
  <text
     id="text20"
     y="17.973446"
     x="281.32224"
     style="font-size:11.78467464000000042px;font-style:italic;font-weight:normal;text-anchor:middle;fill:#000000;font-family:GOST type A;stroke-width:0.49325397"
     font-size="19.2">
    <tspan
       id="tspan22"
       y="17.973446"
       x="281.32224"
       style="stroke-width:0.49325397">Окно документа</tspan>
  </text>
  <rect
     id="rect26"
     height="36.827106"
     width="98.20562"
     y="-1.330096"
     x="-258.80865"
     style="fill:#ffffff;stroke-width:0.49325397" />
  <rect
     id="rect28"
     height="36.827106"
     width="98.20562"
     y="-1.330096"
     x="-258.80865"
     style="fill:none;stroke:#000000;stroke-width:0.49325397" />
  <text
     id="text30"
     y="17.973446"
     x="-209.70586"
     style="font-size:11.78467464000000042px;font-style:italic;font-weight:normal;text-anchor:middle;fill:#000000;font-family:GOST type A;stroke-width:0.49325397"
     font-size="19.2">
    <tspan
       id="tspan32"
       y="17.973446"
       x="-209.70586"
       style="stroke-width:0.49325397">Диалог настроек</tspan>
  </text>
  <rect
     id="rect36"
     height="49.10281"
     width="99.893524"
     y="-1.330096"
     x="-381.56567"
     style="fill:#ffffff;stroke-width:0.49325397" />
  <rect
     id="rect38"
     height="49.10281"
     width="99.893524"
     y="-1.330096"
     x="-381.56567"
     style="fill:none;stroke:#000000;stroke-width:0.49325397" />
  <text
     id="text40"
     y="16.745874"
     x="-331.61893"
     style="font-size:11.78467464000000042px;font-style:italic;font-weight:normal;text-anchor:middle;fill:#000000;font-family:GOST type A;stroke-width:0.49325397"
     font-size="19.2">
    <tspan
       id="tspan42"
       y="16.745874"
       x="-331.61893"
       style="stroke-width:0.49325397">Окно управления</tspan>
    <tspan
       id="tspan44"
       y="31.476717"
       x="-331.61893"
       style="stroke-width:0.49325397">расширениями</tspan>
  </text>
  <rect
     id="rect48"
     height="36.827106"
     width="319.16824"
     y="-1.330096"
     x="-136.05164"
     style="fill:#ffffff;stroke-width:0.49325397" />
  <rect
     id="rect50"
     height="36.827106"
     width="319.16824"
     y="-1.330096"
     x="-136.05164"
     style="fill:none;stroke:#000000;stroke-width:0.49325397" />
  <text
     id="text52"
     y="17.973446"
     x="23.532486"
     style="font-size:11.78467464000000042px;font-style:italic;font-weight:normal;text-anchor:middle;fill:#000000;font-family:GOST type A;stroke-width:0.49325397"
     font-size="19.2">
    <tspan
       id="tspan54"
       y="17.973446"
       x="23.532486"
       style="stroke-width:0.49325397">Документ</tspan>
  </text>
  <line
     id="line58"
     y2="17.083458"
     x2="183.11661"
     y1="17.083458"
     x1="207.66801"
     style="fill:none;stroke:#000000;stroke-width:0.49325397" />
  <polygon
     id="polygon60"
     points="534,-7 520,-10 534,-13 530.5,-10 "
     style="fill:#000000;stroke-width:0.8036265"
     transform="matrix(0.6137851,0,0,0.6137851,-136.05164,23.221308)" />
  <polygon
     id="polygon62"
     points="534,-7 520,-10 534,-13 530.5,-10 "
     style="fill:none;stroke:#000000;stroke-width:0.8036265"
     transform="matrix(0.6137851,0,0,0.6137851,-136.05164,23.221308)" />
  <rect
     id="rect66"
     height="36.827106"
     width="147.30843"
     y="47.772713"
     x="207.66801"
     style="fill:#ffffff;stroke-width:0.49325397" />
  <rect
     id="rect68"
     height="36.827106"
     width="147.30843"
     y="47.772713"
     x="207.66801"
     style="fill:none;stroke:#000000;stroke-width:0.49325397" />
  <text
     id="text70"
     y="67.076248"
     x="281.32224"
     style="font-size:11.78467464000000042px;font-style:italic;font-weight:normal;text-anchor:middle;fill:#000000;font-family:GOST type A;stroke-width:0.49325397"
     font-size="19.2">
    <tspan
       id="tspan72"
       y="67.076248"
       x="281.32224"
       style="stroke-width:0.49325397">Диалог добавления узла</tspan>
  </text>
  <rect
     id="rect76"
     height="36.827106"
     width="147.30843"
     y="96.875519"
     x="207.66801"
     style="fill:#ffffff;stroke-width:0.49325397" />
  <rect
     id="rect78"
     height="36.827106"
     width="147.30843"
     y="96.875519"
     x="207.66801"
     style="fill:none;stroke:#000000;stroke-width:0.49325397" />
  <text
     id="text80"
     y="116.17906"
     x="281.32224"
     style="font-size:11.78467464000000042px;font-style:italic;font-weight:normal;text-anchor:middle;fill:#000000;font-family:GOST type A;stroke-width:0.49325397"
     font-size="19.2">
    <tspan
       id="tspan82"
       y="116.17906"
       x="281.32224"
       style="stroke-width:0.49325397">Диалог просмотра кода</tspan>
  </text>
  <rect
     id="rect86"
     height="36.827106"
     width="147.30843"
     y="145.97833"
     x="207.66801"
     style="fill:#ffffff;stroke-width:0.49325397" />
  <rect
     id="rect88"
     height="36.827106"
     width="147.30843"
     y="145.97833"
     x="207.66801"
     style="fill:none;stroke:#000000;stroke-width:0.49325397" />
  <text
     id="text90"
     y="165.28186"
     x="281.32224"
     style="font-size:11.78467464000000042px;font-style:italic;font-weight:normal;text-anchor:middle;fill:#000000;font-family:GOST type A;stroke-width:0.49325397"
     font-size="19.2">
    <tspan
       id="tspan92"
       y="165.28186"
       x="281.32224"
       style="stroke-width:0.49325397">Диалог соединений узлов</tspan>
  </text>
  <rect
     id="rect96"
     height="36.827106"
     width="147.30843"
     y="195.08113"
     x="207.66801"
     style="fill:#ffffff;stroke-width:0.49325397" />
  <rect
     id="rect98"
     height="36.827106"
     width="147.30843"
     y="195.08113"
     x="207.66801"
     style="fill:none;stroke:#000000;stroke-width:0.49325397" />
  <text
     id="text100"
     y="214.38469"
     x="281.32224"
     style="font-size:11.78467464000000042px;font-style:italic;font-weight:normal;text-anchor:middle;fill:#000000;font-family:GOST type A;stroke-width:0.49325397"
     font-size="19.2">
    <tspan
       id="tspan102"
       y="214.38469"
       x="281.32224"
       style="stroke-width:0.49325397">Диалог свойств узла</tspan>
  </text>
  <rect
     id="rect106"
     height="36.827106"
     width="147.30843"
     y="244.18394"
     x="207.66801"
     style="fill:#ffffff;stroke-width:0.49325397" />
  <rect
     id="rect108"
     height="36.827106"
     width="147.30843"
     y="244.18394"
     x="207.66801"
     style="fill:none;stroke:#000000;stroke-width:0.49325397" />
  <text
     id="text110"
     y="263.48749"
     x="281.32224"
     style="font-size:11.78467464000000042px;font-style:italic;font-weight:normal;text-anchor:middle;fill:#000000;font-family:GOST type A;stroke-width:0.49325397"
     font-size="19.2">
    <tspan
       id="tspan112"
       y="263.48749"
       x="281.32224"
       style="stroke-width:0.49325397">Диалог свойств документа</tspan>
  </text>
  <rect
     id="rect116"
     height="36.827106"
     width="98.20562"
     y="96.875519"
     x="-136.05164"
     style="fill:#ffffff;stroke-width:0.49325397" />
  <rect
     id="rect118"
     height="36.827106"
     width="98.20562"
     y="96.875519"
     x="-136.05164"
     style="fill:none;stroke:#000000;stroke-width:0.49325397" />
  <text
     id="text120"
     y="116.17906"
     x="-86.94883"
     style="font-size:11.78467464000000042px;font-style:italic;font-weight:normal;text-anchor:middle;fill:#000000;font-family:GOST type A;stroke-width:0.49325397"
     font-size="19.2">
    <tspan
       id="tspan122"
       y="116.17906"
       x="-86.94883"
       style="stroke-width:0.49325397">Метка</tspan>
  </text>
  <rect
     id="rect126"
     height="36.827106"
     width="98.20562"
     y="145.97833"
     x="-25.570322"
     style="fill:#ffffff;stroke-width:0.49325397" />
  <rect
     id="rect128"
     height="36.827106"
     width="98.20562"
     y="145.97833"
     x="-25.570322"
     style="fill:none;stroke:#000000;stroke-width:0.49325397" />
  <text
     id="text130"
     y="165.28186"
     x="23.532486"
     style="font-size:11.78467464000000042px;font-style:italic;font-weight:normal;text-anchor:middle;fill:#000000;font-family:GOST type A;stroke-width:0.49325397"
     font-size="19.2">
    <tspan
       id="tspan132"
       y="165.28186"
       x="23.532486"
       style="stroke-width:0.49325397">Связь</tspan>
  </text>
  <rect
     id="rect136"
     height="36.827106"
     width="98.20562"
     y="195.08113"
     x="84.910995"
     style="fill:#ffffff;stroke-width:0.49325397" />
  <rect
     id="rect138"
     height="36.827106"
     width="98.20562"
     y="195.08113"
     x="84.910995"
     style="fill:none;stroke:#000000;stroke-width:0.49325397" />
  <text
     id="text140"
     y="214.38469"
     x="134.01381"
     style="font-size:11.78467464000000042px;font-style:italic;font-weight:normal;text-anchor:middle;fill:#000000;font-family:GOST type A;stroke-width:0.49325397"
     font-size="19.2">
    <tspan
       id="tspan142"
       y="214.38469"
       x="134.01381"
       style="stroke-width:0.49325397">Узел</tspan>
  </text>
  <rect
     id="rect146"
     height="36.827106"
     width="98.20562"
     y="195.08113"
     x="-136.05164"
     style="fill:#ffffff;stroke-width:0.49325397" />
  <rect
     id="rect148"
     height="36.827106"
     width="98.20562"
     y="195.08113"
     x="-136.05164"
     style="fill:none;stroke:#000000;stroke-width:0.49325397" />
  <text
     id="text150"
     y="214.38469"
     x="-86.94883"
     style="font-size:11.78467464000000042px;font-style:italic;font-weight:normal;text-anchor:middle;fill:#000000;font-family:GOST type A;stroke-width:0.49325397"
     font-size="19.2">
    <tspan
       id="tspan152"
       y="214.38469"
       x="-86.94883"
       style="stroke-width:0.49325397">Элемент</tspan>
  </text>
  <polyline
     id="polyline156"
     points="800,-10 840,-10 840,390 800,390 "
     style="fill:none;stroke:#000000;stroke-width:0.8036265"
     transform="matrix(0.6137851,0,0,0.6137851,-136.05164,23.221308)" />
  <polygon
     id="polygon158"
     points="814,393 800,390 814,387 810.5,390 "
     style="fill:#000000;stroke-width:0.8036265"
     transform="matrix(0.6137851,0,0,0.6137851,-136.05164,23.221308)" />
  <polygon
     id="polygon160"
     points="814,393 800,390 814,387 810.5,390 "
     style="fill:none;stroke:#000000;stroke-width:0.8036265"
     transform="matrix(0.6137851,0,0,0.6137851,-136.05164,23.221308)" />
  <polyline
     id="polyline164"
     points="800,-10 840,-10 840,70 800,70 "
     style="fill:none;stroke:#000000;stroke-width:0.8036265"
     transform="matrix(0.6137851,0,0,0.6137851,-136.05164,23.221308)" />
  <polygon
     id="polygon166"
     points="814,73 800,70 814,67 810.5,70 "
     style="fill:#000000;stroke-width:0.8036265"
     transform="matrix(0.6137851,0,0,0.6137851,-136.05164,23.221308)" />
  <polygon
     id="polygon168"
     points="814,73 800,70 814,67 810.5,70 "
     style="fill:none;stroke:#000000;stroke-width:0.8036265"
     transform="matrix(0.6137851,0,0,0.6137851,-136.05164,23.221308)" />
  <polyline
     id="polyline172"
     points="800,-10 840,-10 840,150 800,150 "
     style="fill:none;stroke:#000000;stroke-width:0.8036265"
     transform="matrix(0.6137851,0,0,0.6137851,-136.05164,23.221308)" />
  <polygon
     id="polygon174"
     points="814,153 800,150 814,147 810.5,150 "
     style="fill:#000000;stroke-width:0.8036265"
     transform="matrix(0.6137851,0,0,0.6137851,-136.05164,23.221308)" />
  <polygon
     id="polygon176"
     points="814,153 800,150 814,147 810.5,150 "
     style="fill:none;stroke:#000000;stroke-width:0.8036265"
     transform="matrix(0.6137851,0,0,0.6137851,-136.05164,23.221308)" />
  <polyline
     id="polyline180"
     points="260,20 260,21 260,199 260,200 "
     style="fill:none;stroke:#000000;stroke-width:0.8036265"
     transform="matrix(0.6137851,0,0,0.6137851,-136.05164,23.221308)" />
  <polygon
     id="polygon182"
     points="263,186 260,200 257,186 260,189.5 "
     style="fill:#000000;stroke-width:0.8036265"
     transform="matrix(0.6137851,0,0,0.6137851,-136.05164,23.221308)" />
  <polygon
     id="polygon184"
     points="263,186 260,200 257,186 260,189.5 "
     style="fill:none;stroke:#000000;stroke-width:0.8036265"
     transform="matrix(0.6137851,0,0,0.6137851,-136.05164,23.221308)" />
  <polyline
     id="polyline188"
     points="130,20 130,40 80,40 80,120 "
     style="fill:none;stroke:#000000;stroke-width:0.8036265"
     transform="matrix(0.6137851,0,0,0.6137851,-136.05164,23.221308)" />
  <polygon
     id="polygon190"
     points="83,106 80,120 77,106 80,109.5 "
     style="fill:#000000;stroke-width:0.8036265"
     transform="matrix(0.6137851,0,0,0.6137851,-136.05164,23.221308)" />
  <polygon
     id="polygon192"
     points="83,106 80,120 77,106 80,109.5 "
     style="fill:none;stroke:#000000;stroke-width:0.8036265"
     transform="matrix(0.6137851,0,0,0.6137851,-136.05164,23.221308)" />
  <polyline
     id="polyline196"
     points="390,20 390,40 440,40 440,280 "
     style="fill:none;stroke:#000000;stroke-width:0.8036265"
     transform="matrix(0.6137851,0,0,0.6137851,-136.05164,23.221308)" />
  <polygon
     id="polygon198"
     points="443,266 440,280 437,266 440,269.5 "
     style="fill:#000000;stroke-width:0.8036265"
     transform="matrix(0.6137851,0,0,0.6137851,-136.05164,23.221308)" />
  <polygon
     id="polygon200"
     points="443,266 440,280 437,266 440,269.5 "
     style="fill:none;stroke:#000000;stroke-width:0.8036265"
     transform="matrix(0.6137851,0,0,0.6137851,-136.05164,23.221308)" />
  <polyline
     id="polyline204"
     points="80,180 80,220 80,220 80,280 "
     style="fill:none;stroke:#000000;stroke-width:0.8036265"
     transform="matrix(0.6137851,0,0,0.6137851,-136.05164,23.221308)" />
  <polygon
     id="polygon206"
     points="83,266 80,280 77,266 80,269.5 "
     style="fill:#000000;stroke-width:0.8036265"
     transform="matrix(0.6137851,0,0,0.6137851,-136.05164,23.221308)" />
  <polygon
     id="polygon208"
     points="83,266 80,280 77,266 80,269.5 "
     style="fill:none;stroke:#000000;stroke-width:0.8036265"
     transform="matrix(0.6137851,0,0,0.6137851,-136.05164,23.221308)" />
  <rect
     id="rect212"
     height="36.827106"
     width="98.20562"
     y="244.18394"
     x="-136.05164"
     style="fill:#ffffff;stroke-width:0.49325397" />
  <rect
     id="rect214"
     height="36.827106"
     width="98.20562"
     y="244.18394"
     x="-136.05164"
     style="fill:none;stroke:#000000;stroke-width:0.49325397" />
  <text
     id="text216"
     y="263.48749"
     x="-86.94883"
     style="font-size:11.78467464000000042px;font-style:italic;font-weight:normal;text-anchor:middle;fill:#000000;font-family:GOST type A;stroke-width:0.49325397"
     font-size="19.2">
    <tspan
       id="tspan218"
       y="263.48749"
       x="-86.94883"
       style="stroke-width:0.49325397">Расширение</tspan>
  </text>
  <polyline
     id="polyline222"
     points="-318.625,40 -318.625,390 -1.41553e-14,390 "
     style="fill:none;stroke:#000000;stroke-width:0.8036265"
     transform="matrix(0.6137851,0,0,0.6137851,-136.05164,23.221308)" />
  <polygon
     id="polygon224"
     points="-14,387 -1.41553e-14,390 -14,393 -10.5,390 "
     style="fill:#000000;stroke-width:0.8036265"
     transform="matrix(0.6137851,0,0,0.6137851,-136.05164,23.221308)" />
  <polygon
     id="polygon226"
     points="-14,387 -1.41553e-14,390 -14,393 -10.5,390 "
     style="fill:none;stroke:#000000;stroke-width:0.8036265"
     transform="matrix(0.6137851,0,0,0.6137851,-136.05164,23.221308)" />
  <polyline
     id="polyline230"
     points="440,340 440,390 160,390 "
     style="fill:none;stroke:#000000;stroke-width:0.8036265"
     transform="matrix(0.6137851,0,0,0.6137851,-136.05164,23.221308)" />
  <polygon
     id="polygon232"
     points="174,393 160,390 174,387 170.5,390 "
     style="fill:#000000;stroke-width:0.8036265"
     transform="matrix(0.6137851,0,0,0.6137851,-136.05164,23.221308)" />
  <polygon
     id="polygon234"
     points="174,393 160,390 174,387 170.5,390 "
     style="fill:none;stroke:#000000;stroke-width:0.8036265"
     transform="matrix(0.6137851,0,0,0.6137851,-136.05164,23.221308)" />
  <polyline
     id="polyline238"
     points="560,245 480,245 480,280 "
     style="fill:none;stroke:#000000;stroke-width:0.8036265"
     transform="matrix(0.6137851,0,0,0.6137851,-136.05164,23.221308)" />
  <polygon
     id="polygon240"
     points="483,266 480,280 477,266 480,269.5 "
     style="fill:#000000;stroke-width:0.8036265"
     transform="matrix(0.6137851,0,0,0.6137851,-136.05164,23.221308)" />
  <polygon
     id="polygon242"
     points="483,266 480,280 477,266 480,269.5 "
     style="fill:none;stroke:#000000;stroke-width:0.8036265"
     transform="matrix(0.6137851,0,0,0.6137851,-136.05164,23.221308)" />
  <polyline
     id="polyline246"
     points="340,230 420,230 420,230 560,230 "
     style="fill:none;stroke:#000000;stroke-width:0.8036265"
     transform="matrix(0.6137851,0,0,0.6137851,-136.05164,23.221308)" />
  <polygon
     id="polygon248"
     points="546,227 560,230 546,233 549.5,230 "
     style="fill:#000000;stroke-width:0.8036265"
     transform="matrix(0.6137851,0,0,0.6137851,-136.05164,23.221308)" />
  <polygon
     id="polygon250"
     points="546,227 560,230 546,233 549.5,230 "
     style="fill:none;stroke:#000000;stroke-width:0.8036265"
     transform="matrix(0.6137851,0,0,0.6137851,-136.05164,23.221308)" />
  <polyline
     id="polyline254"
     points="560,310 540,310 540,310 520,310 "
     style="fill:none;stroke:#000000;stroke-width:0.8036265"
     transform="matrix(0.6137851,0,0,0.6137851,-136.05164,23.221308)" />
  <polygon
     id="polygon256"
     points="534,313 520,310 534,307 530.5,310 "
     style="fill:#000000;stroke-width:0.8036265"
     transform="matrix(0.6137851,0,0,0.6137851,-136.05164,23.221308)" />
  <polygon
     id="polygon258"
     points="534,313 520,310 534,307 530.5,310 "
     style="fill:none;stroke:#000000;stroke-width:0.8036265"
     transform="matrix(0.6137851,0,0,0.6137851,-136.05164,23.221308)" />
  <polyline
     id="polyline262"
     points="360,325 280,325 280,325 160,325 "
     style="fill:none;stroke:#000000;stroke-width:0.8036265"
     transform="matrix(0.6137851,0,0,0.6137851,-136.05164,23.221308)" />
  <polygon
     id="polygon264"
     points="174,328 160,325 174,322 170.5,325 "
     style="fill:#000000;stroke-width:0.8036265"
     transform="matrix(0.6137851,0,0,0.6137851,-136.05164,23.221308)" />
  <polygon
     id="polygon266"
     points="174,328 160,325 174,322 170.5,325 "
     style="fill:none;stroke:#000000;stroke-width:0.8036265"
     transform="matrix(0.6137851,0,0,0.6137851,-136.05164,23.221308)" />
  <polyline
     id="polyline270"
     points="260,260 260,295 160,295 "
     style="fill:none;stroke:#000000;stroke-width:0.8036265"
     transform="matrix(0.6137851,0,0,0.6137851,-136.05164,23.221308)" />
  <polygon
     id="polygon272"
     points="174,298 160,295 174,292 170.5,295 "
     style="fill:#000000;stroke-width:0.8036265"
     transform="matrix(0.6137851,0,0,0.6137851,-136.05164,23.221308)" />
  <polygon
     id="polygon274"
     points="174,298 160,295 174,292 170.5,295 "
     style="fill:none;stroke:#000000;stroke-width:0.8036265"
     transform="matrix(0.6137851,0,0,0.6137851,-136.05164,23.221308)" />
  <line
     id="line278"
     y2="-1.330096"
     x2="281.32224"
     y1="-25.8815"
     x1="281.32224"
     style="fill:none;stroke:#000000;stroke-width:0.49325397" />
  <polygon
     id="polygon280"
     points="683,-54 680,-40 677,-54 680,-50.5 "
     style="fill:#000000;stroke-width:0.8036265"
     transform="matrix(0.6137851,0,0,0.6137851,-136.05164,23.221308)" />
  <polygon
     id="polygon282"
     points="683,-54 680,-40 677,-54 680,-50.5 "
     style="fill:none;stroke:#000000;stroke-width:0.8036265"
     transform="matrix(0.6137851,0,0,0.6137851,-136.05164,23.221308)" />
  <line
     id="line286"
     y2="-1.330096"
     x2="-209.70586"
     y1="-25.8815"
     x1="-209.70586"
     style="fill:none;stroke:#000000;stroke-width:0.49325397" />
  <polygon
     id="polygon288"
     points="-117,-54 -120,-40 -123,-54 -120,-50.5 "
     style="fill:#000000;stroke-width:0.8036265"
     transform="matrix(0.6137851,0,0,0.6137851,-136.05164,23.221308)" />
  <polygon
     id="polygon290"
     points="-117,-54 -120,-40 -123,-54 -120,-50.5 "
     style="fill:none;stroke:#000000;stroke-width:0.8036265"
     transform="matrix(0.6137851,0,0,0.6137851,-136.05164,23.221308)" />
  <line
     id="line294"
     y2="-1.330096"
     x2="-331.61893"
     y1="-25.8815"
     x1="-332.46286"
     style="fill:none;stroke:#000000;stroke-width:0.49325397" />
  <polygon
     id="polygon296"
     points="-316.108,-54.0948 -318.625,-40 -322.104,-53.8887 -318.986,-50.4938 "
     style="fill:#000000;stroke-width:0.8036265"
     transform="matrix(0.6137851,0,0,0.6137851,-136.05164,23.221308)" />
  <polygon
     id="polygon298"
     points="-316.108,-54.0948 -318.625,-40 -322.104,-53.8887 -318.986,-50.4938 "
     style="fill:none;stroke:#000000;stroke-width:0.8036265"
     transform="matrix(0.6137851,0,0,0.6137851,-136.05164,23.221308)" />
</svg>
